<svg width="20" height="20" viewBox="0 0 20 20" fill="none" xmlns="http://www.w3.org/2000/svg">
<path d="M9.47992 1.49897C9.52221 1.3958 9.59424 1.30755 9.68684 1.24543C9.77944 1.18331 9.88842 1.15015 9.99992 1.15015C10.1114 1.15015 10.2204 1.18331 10.313 1.24543C10.4056 1.30755 10.4776 1.3958 10.5199 1.49897L12.6449 6.60997C12.6847 6.70561 12.7501 6.78841 12.8339 6.84928C12.9177 6.91015 13.0167 6.94672 13.1199 6.95497L18.6379 7.39697C19.1369 7.43697 19.3389 8.05997 18.9589 8.38497L14.7549 11.987C14.6764 12.0542 14.6178 12.1417 14.5857 12.2399C14.5536 12.3382 14.5492 12.4434 14.5729 12.544L15.8579 17.929C15.8837 18.037 15.877 18.1503 15.8385 18.2545C15.8 18.3587 15.7314 18.4491 15.6416 18.5144C15.5517 18.5797 15.4445 18.6168 15.3335 18.6212C15.2225 18.6256 15.1127 18.597 15.0179 18.539L10.2929 15.654C10.2047 15.6001 10.1033 15.5715 9.99992 15.5715C9.89653 15.5715 9.79515 15.6001 9.70692 15.654L4.98192 18.54C4.88718 18.598 4.77737 18.6266 4.66638 18.6222C4.55538 18.6178 4.44817 18.5807 4.35829 18.5154C4.26841 18.4501 4.19988 18.3597 4.16137 18.2555C4.12286 18.1513 4.11609 18.038 4.14192 17.93L5.42692 12.544C5.45075 12.4434 5.44637 12.3381 5.41426 12.2399C5.38215 12.1416 5.32355 12.0541 5.24492 11.987L1.04092 8.38497C0.956263 8.3128 0.894927 8.21714 0.86468 8.11009C0.834432 8.00304 0.836635 7.88942 0.871009 7.78362C0.905382 7.67782 0.97038 7.58461 1.05777 7.51578C1.14516 7.44695 1.25101 7.4056 1.36192 7.39697L6.87992 6.95497C6.98317 6.94672 7.08214 6.91015 7.16595 6.84928C7.24975 6.78841 7.31514 6.70561 7.35492 6.60997L9.47992 1.49897Z" stroke="white" stroke-width="1.5" stroke-linecap="round" stroke-linejoin="round"/>
</svg>
